# xmcd CD database file
#
# Track frame offsets:
#	150
#	38091
#	62240
#	91422
#	122772
#	176322
#	206776
#
# Disc length: 3223 seconds
#
# Revision: 0
# Processed by: cddbd v1.5.1PL0 Copyright (c) Steve Scherf et al.
# Submitted via: CDex 1.40Release
#
DISCID=5c0c9507
DTITLE=Tony Redhouse - Soul Blessings
DYEAR=2003
DGENRE=Native American
TTITLE0=Yei-Shango
TTITLE1=Eagle's Dance
TTITLE2=Soul Blessings
TTITLE3=Boy Dancer
TTITLE4=Daydream
TTITLE5=Travleing Home
TTITLE6=Full Moon Boogie
EXTD=YEAR: 2003 ID3G: 64
EXTT0=
EXTT1=
EXTT2=
EXTT3=
EXTT4=
EXTT5=
EXTT6=
PLAYORDER=
